<?xml version="1.0" encoding="utf-8"?>
<!-- Uygulama ikonunun (3. tur Recraft çıktısı — SON) siyah zemini atılmış hâli:
     konuşma balonu + İÇİNDEKİ KALP. Kalp ayrı bir alt-path — dolu değil DELİK
     (aynı sarım yönü, o yüzden çizerken fillRule="evenodd" şart, bkz.
     NoteGlyph). Not ürününün ikonu bu siluet; dolgu rengi çağıranın kararı.
     DİKKAT: super-like kalbi hâlâ 1. turun kalbi (app-icon-glyph--heart.svg) —
     buradaki kalp ondan farklı bir çizim. -->
<svg xmlns="http://www.w3.org/2000/svg" width="1024" height="1024" viewBox="0 0 1024 1024">
  <path fill="#FEFEFE" d="M496.298 143.722C530.25 142.807 564.215 144.944 597.785 150.109C684.71 163.475 764.823 202.347 817.162 274.62C882.69 366.118 891.695 492.656 874.987 600.609C861.79 685.88 820.661 763.693 749.965 814.371C659.317 879.352 532.864 890.518 425.62 873.7C384.083 866.733 351.209 856.687 313.605 838.1C310.238 839.55 307.025 841.277 303.777 842.991C261.182 865.457 212.937 876.812 165.085 880.448C149.579 881.626 138.228 867.815 146.175 853.311C149.861 846.585 161.146 843.843 167.658 839.788C189.003 826.495 204.328 804.332 209.438 779.708C211.453 770.053 211.551 761.233 211.397 751.487C163.265 689.181 145.682 606.259 142.717 529.11C141.399 497.509 143.108 465.855 147.821 434.579C176.01 238.893 305.64 151.147 496.298 143.722Z"/>
  <path fill="#020203" d="M613.132 342.219C622.067 342.021 630.996 342.825 639.751 344.618C706.986 358.473 748.275 426.5 732.777 492.46C713.198 575.786 638.705 640.713 574.291 691.514C555.057 706.684 533.349 719.485 512.974 732.775C481.687 714.813 445.216 688.494 417.978 665.352C356.059 612.431 269.398 522.322 293.375 432.507C301.511 401.065 321.969 374.227 350.131 358.052C377.912 342.219 410.839 338.054 441.688 346.469C474.332 355.268 496.309 375.324 512.798 404C533.804 364.221 568.702 344.372 613.132 342.219Z"/>
</svg>
